<svg width="32" height="31" viewBox="0 0 32 31" fill="none" xmlns="http://www.w3.org/2000/svg">
<g clip-path="url(#clip0_11_64727)">
<circle cx="16" cy="16" r="16" fill="#4640DE"/>
<mask id="path-2-inside-1_11_64727" fill="white">
<path d="M16 25.4999C18.6273 25.4999 21.2546 23.5683 22.9863 21.9606C23.3986 21.5778 22.9379 20.9997 22.4341 21.2501C20.5575 22.1832 18.0009 23.2333 16 23.2333C13.9991 23.2333 11.4425 22.1832 9.56586 21.2501C9.06206 20.9997 8.60139 21.5778 9.01372 21.9606C10.7454 23.5683 13.3727 25.4999 16 25.4999Z"/>
</mask>
<path d="M22.9863 21.9606L20.9451 19.762L20.9451 19.762L22.9863 21.9606ZM9.01372 21.9606L11.0549 19.762L11.0549 19.762L9.01372 21.9606ZM9.56586 21.2501L8.2303 23.9365H8.2303L9.56586 21.2501ZM22.4341 21.2501L23.7697 23.9365L23.7697 23.9365L22.4341 21.2501ZM22.9863 21.9606L20.9451 19.762C20.1796 20.4728 19.2778 21.195 18.3452 21.7258C17.3916 22.2685 16.6003 22.4999 16 22.4999V25.4999V28.4999C18.0269 28.4999 19.863 27.7656 21.3128 26.9405C22.7835 26.1036 24.0613 25.0562 25.0274 24.1592L22.9863 21.9606ZM16 25.4999V22.4999C15.3997 22.4999 14.6084 22.2685 13.6548 21.7258C12.7222 21.195 11.8204 20.4728 11.0549 19.762L9.01372 21.9606L6.97259 24.1592C7.93872 25.0562 9.21652 26.1036 10.6872 26.9405C12.137 27.7656 13.9731 28.4999 16 28.4999V25.4999ZM9.56586 21.2501L8.2303 23.9365C10.1039 24.868 13.2255 26.2333 16 26.2333V23.2333V20.2333C14.7726 20.2333 12.7811 19.4984 10.9014 18.5638L9.56586 21.2501ZM16 23.2333V26.2333C18.7745 26.2333 21.8961 24.868 23.7697 23.9365L22.4341 21.2501L21.0986 18.5638C19.2189 19.4984 17.2274 20.2333 16 20.2333V23.2333ZM22.9863 21.9606L25.0274 24.1592C25.6342 23.5958 26.0755 22.794 26.1382 21.852C26.1986 20.9436 25.8916 20.1237 25.4124 19.5141C24.4274 18.2608 22.6526 17.7912 21.0986 18.5638L22.4341 21.2501L23.7697 23.9365C22.7195 24.4586 21.4269 24.1528 20.6951 23.2217C20.3425 22.7731 20.1049 22.1539 20.1514 21.4538C20.2002 20.7201 20.5445 20.134 20.9451 19.762L22.9863 21.9606ZM9.01372 21.9606L11.0549 19.762C11.4555 20.134 11.7998 20.7201 11.8486 21.4538C11.8951 22.1539 11.6575 22.7731 11.3049 23.2217C10.5731 24.1528 9.2805 24.4586 8.2303 23.9365L9.56586 21.2501L10.9014 18.5638C9.34742 17.7912 7.57256 18.2608 6.58756 19.5141C6.1084 20.1237 5.80139 20.9436 5.86181 21.852C5.92446 22.794 6.36575 23.5958 6.97259 24.1592L9.01372 21.9606Z" fill="white" mask="url(#path-2-inside-1_11_64727)"/>
<path d="M21.7117 9.316C21.3918 8.99389 21.3918 8.47756 21.7117 8.15546L23.4302 6.02657L23.4302 5.98961C23.8655 5.55891 24.5713 5.55891 25.0067 5.98961C25.442 6.42031 25.442 7.11861 25.0067 7.54931L22.9819 9.316L22.9063 9.38304C22.7482 9.50792 22.5511 9.57689 22.3468 9.57689C22.1085 9.57689 21.88 9.48301 21.7117 9.316ZM8.6665 15.1852C8.6665 13.2894 9.4277 11.4713 10.7826 10.1308C12.1376 8.79028 13.9753 8.03719 15.8914 8.03719C19.8817 8.03719 23.1164 11.2375 23.1164 15.1852C23.1164 19.133 19.8817 22.3333 15.8914 22.3333C11.9012 22.3333 8.6665 19.133 8.6665 15.1852Z" fill="white"/>
</g>
<defs>
<clipPath id="clip0_11_64727">
<rect width="32" height="30.2222" fill="white"/>
</clipPath>
</defs>
</svg>
