<svg width="998" height="154" viewBox="0 0 998 154" fill="none" xmlns="http://www.w3.org/2000/svg">
<path fill-rule="evenodd" clip-rule="evenodd" d="M0 153.647L6.31685 136.56L28.4628 135.826L43.9428 129.417L60.1264 129.065L71.9199 119.641L82.2926 95.142L88.942 86.3763L106.701 104.66L121.144 107.443L131.712 102.135L144.463 78.7361L181.024 126.178L196.076 105.745L213.334 116.001L222.636 100.364L224.45 92.8612L238.459 85.1994L245.694 74.7876L253.69 89.3315L252.367 98.8812L259.743 100.294L265.467 96.0427L280.404 0L294.309 116.995L306.692 104.414V97.23L317.276 89.8058L322.232 84.1152L331.352 75.5569L353.034 84.4811L363.827 89.3315L372.54 86.1917L387.737 100.304L409.843 72.5672L416.31 87.6928L430.171 98.1568L443.607 94.8053L449.883 87.6908L459.929 84.477L461.195 78.3683L472.658 63.349L489.488 67.6146L494.62 54.265L517.698 141.837L534.151 124.325L555.832 123.1L581.813 135.529L591.906 87.0465L604.568 89.7756L610.527 84.0777L613.884 85.8978L620.183 85.3422L623.782 87.794L633.781 89.3931L633.959 94.8179L645.911 98.2568L660.845 97.4959L661.63 88.4153L650.376 28.9881L676.602 53.3521L689.725 61.5383L722.56 44.7979L741.089 56.7014H747.018H753.705L761.84 64.167L771.721 72.5672L824.501 75.5569L832.984 63.349L868.556 98.1516L889.032 67.6146L910.07 78.3319L929.93 64.8545L951.901 75.5569L968.504 82.5397L977.825 80.4053L988.119 74.7876L998 67.6146V153.647H82.6059H0Z" fill="url(#paint0_linear_11_63849)"/>
<defs>
<linearGradient id="paint0_linear_11_63849" x1="249.5" y1="76.8234" x2="249.5" y2="153.647" gradientUnits="userSpaceOnUse">
<stop stop-color="#4379EE" stop-opacity="0.16"/>
<stop offset="1" stop-color="white" stop-opacity="0.176942"/>
</linearGradient>
</defs>
</svg>
