<svg width="999" height="155" viewBox="0 0 999 155" fill="none" xmlns="http://www.w3.org/2000/svg">
<path d="M0.705867 154.618L7.09163 136.881L29.2434 136.146L44.7274 129.725L60.9153 129.372L72.7119 119.932L83.0873 95.3887L89.876 86.6072L107.502 104.924L121.949 107.712L132.52 102.394L145.078 78.5848L181.844 126.481L196.901 106.01L214.163 116.285L223.467 100.62L225.282 93.1038L239.295 85.4282L246.532 74.9977L254.53 89.5678L253.206 99.1346L260.585 100.55L266.309 96.291L281.23 0.115039L295.159 117.28L307.545 104.678V97.4805L318.133 90.0429L323.09 84.3421L332.212 75.7683L353.9 84.7086L364.696 89.5678L373.411 86.4223L388.612 100.56L410.724 72.7733L417.193 87.9261L431.057 98.4089L444.497 95.0514L450.774 87.924L460.823 84.7045L462.089 78.5848L473.556 63.5385L490.39 67.8118L495.619 55.8894L518.607 142.167L535.064 124.624L556.751 123.397L582.738 135.848L592.834 87.2787L605.5 90.0127L611.46 84.3045L614.818 86.1278L621.119 85.5712L624.718 88.0274L634.72 89.6294L634.899 95.0639L646.853 98.5091L661.792 97.7468L662.577 88.6498L651.359 29.1155L677.552 53.5236L690.679 61.7245L723.523 44.9541L741.788 56.879H754.403L772.675 72.7733L797.464 75.7683H825.199L833.682 63.5385L853.116 82.6691L869.254 99.1346L890.213 67.8118C890.213 67.8118 909.395 79.4009 911.598 78.5848C913.801 77.7688 932.133 64.9717 932.133 64.9717L949.913 74.9977L971.164 84.3421L988.815 75.7683L997.131 67.8118H994.744H996.024" stroke="#4640DE" stroke-width="1.5"/>
</svg>
